<svg width="18" height="23" viewBox="0 0 18 23" fill="none" xmlns="http://www.w3.org/2000/svg">
<path d="M16.2692 3.53876H12.4615V2.84645C12.4615 1.70125 11.5298 0.769531 10.3846 0.769531H7.61539C6.47018 0.769531 5.53846 1.70125 5.53846 2.84645V3.53876H1.73077C0.776423 3.53876 0 4.31519 0 5.26953V7.69261C0 8.07494 0.309981 8.38492 0.692308 8.38492H1.07065L1.66876 20.9452C1.7216 22.0545 2.63285 22.9234 3.74331 22.9234H14.2567C15.3672 22.9234 16.2784 22.0545 16.3312 20.9452L16.9293 8.38492H17.3077C17.69 8.38492 18 8.07494 18 7.69261V5.26953C18 4.31519 17.2236 3.53876 16.2692 3.53876ZM6.92308 2.84645C6.92308 2.46473 7.23366 2.15415 7.61539 2.15415H10.3846C10.7663 2.15415 11.0769 2.46473 11.0769 2.84645V3.53876H6.92308V2.84645ZM1.38462 5.26953C1.38462 5.07867 1.53991 4.92338 1.73077 4.92338H16.2692C16.4601 4.92338 16.6154 5.07867 16.6154 5.26953V7.0003C16.402 7.0003 2.26874 7.0003 1.38462 7.0003V5.26953ZM14.9482 20.8794C14.9306 21.2491 14.6268 21.5388 14.2567 21.5388H3.74331C3.37314 21.5388 3.06939 21.2491 3.05182 20.8794L2.45683 8.38492H15.5432L14.9482 20.8794Z" fill="white"/>
<path d="M8.99968 20.1541C9.38201 20.1541 9.69199 19.8442 9.69199 19.4618V10.4618C9.69199 10.0795 9.38201 9.76953 8.99968 9.76953C8.61735 9.76953 8.30737 10.0795 8.30737 10.4618V19.4618C8.30737 19.8442 8.61731 20.1541 8.99968 20.1541Z" fill="white"/>
<path d="M12.4614 20.1541C12.8437 20.1541 13.1537 19.8442 13.1537 19.4618V10.4618C13.1537 10.0795 12.8437 9.76953 12.4614 9.76953C12.079 9.76953 11.769 10.0795 11.769 10.4618V19.4618C11.769 19.8442 12.079 20.1541 12.4614 20.1541Z" fill="white"/>
<path d="M5.5385 20.1541C5.92083 20.1541 6.23081 19.8442 6.23081 19.4618V10.4618C6.23081 10.0795 5.92083 9.76953 5.5385 9.76953C5.15617 9.76953 4.84619 10.0795 4.84619 10.4618V19.4618C4.84619 19.8442 5.15613 20.1541 5.5385 20.1541Z" fill="white"/>
</svg>
