<svg width="28" height="28" viewBox="0 0 28 28" fill="none" xmlns="http://www.w3.org/2000/svg">
<path d="M28 14C28 6.26182 21.7382 0 14 0C6.26182 0 0 6.26182 0 14C0 18.0727 1.73091 21.7382 4.53091 24.3345L4.98909 24.7418C5.04 24.7418 5.04 24.7927 5.09091 24.7927C5.34545 24.9964 5.6 25.2 5.85455 25.3527C5.95636 25.4036 6.00727 25.4545 6.10909 25.5055C6.36364 25.7091 6.66909 25.8618 6.92364 26.0145C6.97455 26.0655 7.02545 26.0655 7.12727 26.1164C7.43273 26.2691 7.73818 26.4727 8.09455 26.6255C8.09455 26.6255 8.14545 26.6255 8.14545 26.6764C9.21455 27.1855 10.3345 27.5418 11.5564 27.7455C11.6073 27.7455 11.6073 27.7455 11.6582 27.7455C12.0145 27.7964 12.4218 27.8473 12.7782 27.8982C12.8291 27.8982 12.88 27.8982 12.9309 27.8982C13.2364 28 13.5927 28 14 28C14.3564 28 14.7636 28 15.12 27.9491C15.1709 27.9491 15.2218 27.9491 15.2727 27.9491C15.6291 27.8982 16.0364 27.8473 16.3927 27.7964C16.4436 27.7964 16.4436 27.7964 16.4945 27.7964C17.6655 27.5927 18.7855 27.2364 19.8545 26.7273C19.9055 26.7273 19.9564 26.6764 19.9564 26.6764C20.2618 26.5236 20.5673 26.3709 20.8727 26.2182C20.9236 26.1673 21.0255 26.1164 21.0764 26.0655C21.3309 25.9127 21.6364 25.76 21.8909 25.5564C21.9927 25.5055 22.0945 25.4036 22.1455 25.3527C22.3491 25.2 22.6036 25.0473 22.8073 24.8436C22.8582 24.7927 22.9091 24.7927 22.96 24.7418L23.4182 24.3345C26.2182 21.7891 28 18.0727 28 14ZM22.6036 23.7236C22.4509 23.6218 22.2982 23.52 22.1455 23.4691L17.8182 21.3309C17.4109 21.1273 17.2073 20.7709 17.2073 20.3127V18.7855C17.3091 18.6836 17.4109 18.5309 17.5127 18.3782C18.0727 17.6145 18.5309 16.6982 18.8364 15.7818C19.4982 15.4764 19.9055 14.8145 19.9055 14.1018V12.32C19.9055 11.8618 19.7527 11.4545 19.4473 11.0982V8.65454C19.4982 8.4 19.5491 6.92364 18.48 5.65091C17.5636 4.63273 16.0364 4.07273 14 4.07273C11.9636 4.07273 10.4364 4.63273 9.46909 5.70182C8.4 6.92364 8.50182 8.4 8.50182 8.70545V11.0982C8.19636 11.4545 8.04364 11.8618 8.04364 12.32V14.1018C8.04364 14.6618 8.29818 15.1709 8.70545 15.5273C9.11273 17.1564 9.97818 18.3782 10.2836 18.7855V20.2618C10.2836 20.6691 10.08 21.0764 9.67273 21.28L5.70182 23.4182C5.54909 23.4691 5.44727 23.5709 5.29455 23.6727C2.69818 21.28 1.01818 17.8182 1.01818 14C1.01818 6.82182 6.82182 1.01818 14 1.01818C21.1782 1.01818 26.9818 6.82182 26.9818 14C26.9818 17.8691 25.3018 21.3309 22.6036 23.7236Z" fill="#000"/>
</svg>
