<svg width="19" height="20" viewBox="0 0 19 20" fill="none" xmlns="http://www.w3.org/2000/svg">
<path d="M18.0514 17.9526L18.0513 17.9525L13.2321 12.9407C14.4509 11.6507 15.2001 9.91134 15.2001 8.00004C15.2001 4.02956 11.9705 0.8 8.00004 0.8C4.02956 0.8 0.8 4.02956 0.8 8.00004C0.8 11.9705 4.02956 15.2001 8.00004 15.2001C9.67619 15.2001 11.22 14.6237 12.4444 13.6603L17.2819 18.6913C17.3868 18.8011 17.5273 18.8554 17.6668 18.8554C17.7999 18.8554 17.933 18.8057 18.0362 18.7068L18.0364 18.7066C18.2487 18.5023 18.2551 18.1648 18.0514 17.9526ZM8.00004 14.1334C4.61814 14.1334 1.86667 11.3819 1.86667 8.00004C1.86667 4.61814 4.61814 1.86667 8.00004 1.86667C11.3819 1.86667 14.1334 4.61814 14.1334 8.00004C14.1334 11.3819 11.3816 14.1334 8.00004 14.1334Z" fill="white" stroke="white" stroke-width="0.4"/>
</svg>
